<svg width="20" height="20" viewBox="0 0 20 20" fill="none" xmlns="http://www.w3.org/2000/svg">
<path d="M10 20C4.486 20 0 15.514 0 10C0 4.486 4.486 0 10 0C15.514 0 20 4.486 20 10C20 15.514 15.514 20 10 20ZM10 1.4286C5.2737 1.4286 1.4286 5.2737 1.4286 10C1.4286 14.7263 5.2737 18.5714 10 18.5714C14.7263 18.5714 18.5714 14.7263 18.5714 10C18.5714 5.2737 14.7263 1.4286 10 1.4286Z" fill="#212121"/>
<path d="M7.962 15.4989C7.962 16.1705 7.9755 17.9705 7.9755 18.1586C7.9664 18.2949 7.8951 18.4492 7.7249 18.5143C8.4384 18.7223 9.1925 18.836 9.9736 18.836C10.7531 18.836 11.5057 18.7228 12.218 18.5156C12.0623 18.4493 11.9988 18.2985 11.9988 18.1586C11.9988 17.8899 12.0123 15.8616 12.0123 14.787C12.0123 14.0348 11.7558 13.5512 11.4588 13.296C13.2679 13.0811 15.158 12.396 15.158 9.30651C15.158 8.41991 14.834 7.70801 14.3209 7.14381C14.4154 6.94231 14.6989 6.12291 14.2534 5.00801C14.2534 5.00801 13.5784 4.79311 12.0258 5.84081C11.3778 5.65271 10.6892 5.55871 10.0007 5.55871C9.3122 5.57211 8.6236 5.66621 7.9756 5.84081C6.423 4.79301 5.748 5.00801 5.748 5.00801C5.3025 6.10951 5.586 6.94231 5.667 7.14381C5.1405 7.70801 4.8299 8.43331 4.8299 9.30651C4.8299 12.396 6.72 13.0945 8.5156 13.296C8.2861 13.4975 8.0701 13.8467 8.00259 14.3706L7.962 15.4989Z" fill="#212121"/>
<path d="M8.05728 15.4132C7.44998 15.4943 6.78248 15.451 6.59918 14.9319C6.59578 14.9223 6.59218 14.9127 6.58828 14.9033C6.58418 14.8934 6.16488 13.9069 5.57728 13.613C5.28248 13.4657 4.92418 13.585 4.77688 13.8798C4.63078 14.1718 4.74688 14.5265 5.03588 14.6762C5.14888 14.7553 5.38788 15.1289 5.48028 15.3462C5.67108 15.8719 6.19188 16.6389 7.60408 16.6389C7.74118 16.6389 7.88698 16.6314 8.04138 16.6161" fill="#212121"/>
</svg>
