<svg width="18" height="18" viewBox="0 0 18 18" fill="none" xmlns="http://www.w3.org/2000/svg">
<path d="M8.45872 10.7609L2.86512 17.2432C2.71692 17.4131 2.50892 17.5001 2.29972 17.5001C2.12472 17.5001 1.94902 17.4392 1.80692 17.3152C1.49482 17.0428 1.46262 16.5691 1.73502 16.257L7.50662 9.57081L8.45872 10.7609ZM10.4935 8.42931L16.2651 1.74311C16.5375 1.43101 16.5053 0.957312 16.1932 0.684912C15.8812 0.412512 15.4072 0.444712 15.135 0.756812L9.54142 7.23911L10.4935 8.42931Z" fill="#212121"/>
<path d="M17.05 17.5H13.15C12.9221 17.5 12.7067 17.3964 12.5644 17.2185L0.364416 1.7185C0.184316 1.4934 0.149216 1.1849 0.274116 0.9251C0.399016 0.6653 0.661716 0.5 0.950016 0.5H4.85002C5.07792 0.5 5.29332 0.6036 5.43562 0.7815L17.6356 16.2815C17.8157 16.5066 17.8508 16.8151 17.7259 17.0749C17.601 17.3347 17.3383 17.5 17.05 17.5ZM13.5105 16H15.4895L4.48952 2H2.51052L13.5105 16Z" fill="#212121"/>
</svg>
